<?xml version="1.0" encoding="UTF-8" standalone="no"?>
<!DOCTYPE svg PUBLIC "-//W3C//DTD SVG 1.1//EN"
 "http://www.w3.org/Graphics/SVG/1.1/DTD/svg11.dtd">
<!-- Generated by graphviz version 2.43.0 (0)
 -->
<!-- Title: domain graph example Pages: 1 -->
<svg width="1175pt" height="98pt"
 viewBox="0.00 0.00 1174.71 98.00" xmlns="http://www.w3.org/2000/svg" xmlns:xlink="http://www.w3.org/1999/xlink">
<g id="graph0" class="graph" transform="scale(1 1) rotate(0) translate(4 94)">
<title>domain graph example</title>
<polygon fill="white" stroke="transparent" points="-4,4 -4,-94 1170.71,-94 1170.71,4 -4,4"/>
<!-- _r -->
<g id="node1" class="node">
<title>_r</title>
<ellipse fill="none" stroke="black" cx="270.38" cy="-45" rx="270.25" ry="18"/>
<text text-anchor="middle" x="270.38" y="-41.3" font-family="Times,serif" font-size="14.00">kb:relationship&#45;cecfbe8c&#45;8357&#45;4105&#45;b448&#45;b491177fedf2</text>
</g>
<!-- _p -->
<g id="node2" class="node">
<title>_p</title>
<ellipse fill="none" stroke="black" cx="913.23" cy="-72" rx="241.26" ry="18"/>
<text text-anchor="middle" x="913.23" y="-68.3" font-family="Times,serif" font-size="14.00">kb:person&#45;952c09ff&#45;5a38&#45;483b&#45;9dcf&#45;6d8f0b27dfac</text>
</g>
<!-- _r&#45;&gt;_p -->
<g id="edge1" class="edge">
<title>_r&#45;&gt;_p</title>
<path fill="none" stroke="black" d="M499.57,-54.61C562.34,-57.26 630.26,-60.12 692.54,-62.74"/>
<polygon fill="black" stroke="black" points="692.75,-66.26 702.88,-63.18 693.04,-59.26 692.75,-66.26"/>
<text text-anchor="middle" x="600.25" y="-63.8" font-family="Times,serif" font-size="14.00">core:source</text>
</g>
<!-- _l -->
<g id="node3" class="node">
<title>_l</title>
<ellipse fill="none" stroke="black" cx="913.23" cy="-18" rx="253.46" ry="18"/>
<text text-anchor="middle" x="913.23" y="-14.3" font-family="Times,serif" font-size="14.00">kb:location&#45;7044bee0&#45;d5d2&#45;45f3&#45;bb5d&#45;2ced42bfd3f4</text>
</g>
<!-- _r&#45;&gt;_l -->
<g id="edge2" class="edge">
<title>_r&#45;&gt;_l</title>
<path fill="none" stroke="black" d="M499.57,-35.39C559.78,-32.85 624.74,-30.11 684.91,-27.58"/>
<polygon fill="black" stroke="black" points="685.06,-31.07 694.91,-27.16 684.77,-24.08 685.06,-31.07"/>
<text text-anchor="middle" x="600.25" y="-35.8" font-family="Times,serif" font-size="14.00">core:target</text>
</g>
</g>
</svg>
